HIERARCHY
ROOT ui
{
	 OFFSET 0 0 0
	 CHANNELS 3 XPosition YPosition Z Position
	 EndSite
	 {
	 OFFSET 0 -1 0
	 }
}
ROOT li
{
	 OFFSET 0 0 0
	 CHANNELS 3 XPosition YPosition Z Position
	 EndSite
	 {
	 OFFSET 0 -1 0
	 }
}
ROOT ul
{
	 OFFSET 0 0 0
	 CHANNELS 3 XPosition YPosition Z Position
	 EndSite
	 {
	 OFFSET 0 -1 0
	 }
}
ROOT ll
{
	 OFFSET 0 0 0
	 CHANNELS 3 XPosition YPosition Z Position
	 EndSite
	 {
	 OFFSET 0 -1 0
	 }
}
ROOT tt
{
	 OFFSET 0 0 0
	 CHANNELS 3 XPosition YPosition Z Position
	 EndSite
	 {
	 OFFSET 0 -1 0
	 }
}
ROOT tb
{
	 OFFSET 0 0 0
	 CHANNELS 3 XPosition YPosition Z Position
	 EndSite
	 {
	 OFFSET 0 -1 0
	 }
}
ROOT td
{
	 OFFSET 0 0 0
	 CHANNELS 3 XPosition YPosition Z Position
	 EndSite
	 {
	 OFFSET 0 -1 0
	 }
}
ROOT v
{
	 OFFSET 0 0 0
	 CHANNELS 3 XPosition YPosition Z Position
	 EndSite
	 {
	 OFFSET 0 -1 0
	 }
}
ROOT bn
{
	 OFFSET 0 0 0
	 CHANNELS 3 XPosition YPosition Z Position
	 EndSite
	 {
	 OFFSET 0 -1 0
	 }
}
MOTION
Frames: 32
Frame Time: 0.002
-0.0035848701000213623	0.0025956590175628663	0		0.5890338134765625	-2.67708447265625	0		-0.9890598754882812	0.3297347717285156	0		-0.1472393798828125	-3.378421630859375	0		1.70827978515625	-1.519320068359375	0		2.77033642578125	-0.7756261596679688	0		4.13560791015625	-0.02218910217285156	0		6.02139013671875	0.6795055541992188	0		-0.29279312133789065	5.9325029296875	0		
-0.003696197986602783	0.0026219420433044433	0		0.6266744384765625	-2.687731689453125	0		-0.985093994140625	0.3337162170410156	0		-0.17634609985351563	-3.372888671875	0		1.7152847900390624	-1.51046044921875	0		2.75405126953125	-0.7843916625976562	0		4.1444423828125	-0.025424690246582032	0		6.02500244140625	0.6964283447265625	0		-0.16039039611816405	5.95224072265625	0		
-7.786939740180969E-4	0.005623526096343994	0		0.6166209716796875	-2.67852294921875	0		-0.909177978515625	0.33547607421875	0		-0.11776020050048829	-3.383854248046875	0		1.7509971923828125	-1.5170810546875	0		2.79983544921875	-0.7882164306640626	0		4.15092333984375	-0.04760809326171875	0		6.0212197265625	0.6790722045898437	0		-0.2917339782714844	5.93158154296875	0		
-0.003984895944595337	0.0027578370571136475	0		0.6045059814453125	-2.671252685546875	0		-0.9845197143554687	0.3248951110839844	0		-0.15201603698730468	-3.383176513671875	0		1.7098011474609376	-1.5163399658203125	0		2.771764892578125	-0.7817359008789062	0		4.1597314453125	-0.049813671112060545	0		6.01767138671875	0.6963302001953126	0		-0.16032098388671875	5.9523857421875	0		
7.555980086326599E-4	-0.0022209720611572267	0		0.61101611328125	-2.684285888671875	0		-0.9086394653320312	0.3267084655761719	0		-0.12442835998535157	-3.3905517578125	0		1.7454681396484375	-1.5229178466796875	0		2.7844775390625	-0.7869481811523438	0		4.15827880859375	-0.06582669067382813	0		6.015263671875	0.6754946899414063	0		-0.1602914276123047	5.9524990234375	0		
5.70701003074646E-4	-0.0020892000198364257	0		0.6226107177734375	-2.691384765625	0		-1.0427921142578125	0.32921746826171877	0		-0.1619390869140625	-3.40176611328125	0		1.724074462890625	-1.5314798583984375	0		2.777230712890625	-0.78879345703125	0		4.1616708984375	-0.08991035461425781	0		6.01926513671875	0.6544071044921875	0		-0.29066278076171875	5.9309150390625	0		
0.007497917175292969	0.004941100120544433	0		0.6253840942382812	-2.6873076171875	0		-0.9659156494140625	0.332060302734375	0		-0.13030232238769532	-3.404166748046875	0		1.7747791748046875	-1.5342850341796874	0		2.81031689453125	-0.7713259887695313	0		4.1696826171875	-0.07805598449707031	0		6.0191298828125	0.6542750854492188	0		-0.15730223083496095	5.94874462890625	0		
0.0032276699542999267	0.0011863169670104981	0		0.6250763549804688	-2.68715771484375	0		-0.9661032104492188	0.33227334594726565	0		-0.13167355346679688	-3.405968994140625	0		1.7676590576171876	-1.5260592041015626	0		2.786159423828125	-0.766842041015625	0		4.18631787109375	-0.08734471893310547	0		6.01898974609375	0.6541583251953125	0		-0.2915794677734375	5.93228369140625	0		
-2.9597999528050423E-5	-0.0015676900148391723	0		0.6196549682617187	-2.69290185546875	0		-0.9053038330078125	0.331431640625	0		-0.11902185821533204	-3.405999755859375	0		1.7516046142578126	-1.5136597900390625	0		2.79604443359375	-0.7599420776367187	0		4.18482763671875	-0.1033055419921875	0		6.00458447265625	0.6546646118164062	0		-0.17336273193359375	5.941408203125	0		
-0.0051481790542602535	0.003728266954421997	0		0.6094923095703125	-2.683544921875	0		-0.9705576782226563	0.3288274230957031	0		-0.16315682983398438	-3.393010986328125	0		1.760242431640625	-1.5186846923828126	0		2.803732421875	-0.7639942626953125	0		4.188720703125	-0.09734825134277343	0		6.02353173828125	0.6312637939453125	0		-0.17233319091796875	5.9406064453125	0		
-0.0034986250400543214	-0.004084353923797608	0		0.6210396118164062	-2.690561767578125	0		-0.9666817016601562	0.3330200500488281	0		-0.13987286376953126	-3.413204345703125	0		1.76201953125	-1.5155767822265624	0		2.794827880859375	-0.7447401733398438	0		4.19031298828125	-0.10834523010253906	0		6.02063427734375	0.6451426391601562	0		-0.290456298828125	5.93192626953125	0		
-6.535469889640808E-4	-9.065089821815491E-4	0		0.6237814331054687	-2.686412109375	0		-1.0028685302734375	0.33393392944335937	0		-0.1371812744140625	-3.410020263671875	0		1.7620455322265625	-1.498427490234375	0		2.800727783203125	-0.7367423706054688	0		4.20620458984375	-0.10258740234375	0		6.020490234375	0.6450689697265625	0		-0.1580270538330078	5.95182421875	0		
0.019210700988769532	0.002975935935974121	0		0.664501953125	-2.683931884765625	0		-0.8960917358398437	0.3313148193359375	0		-0.11843693542480468	-3.4041142578125	0		1.7617734375	-1.4982689208984374	0		2.809898193359375	-0.7137951049804687	0		4.19810400390625	-0.09639912414550782	0		6.00608642578125	0.6456173095703125	0		-0.2893475341796875	5.9314052734375	0		
-0.0010554620027542114	-4.2353498935699465E-4	0		0.6200630493164062	-2.68993212890625	0		-0.9731732177734375	0.33797271728515627	0		-0.13893052673339842	-3.4115068359375	0		1.756685791015625	-1.48801806640625	0		2.8185947265625	-0.7178397827148437	0		4.215755859375	-0.10466728973388671	0		6.00594921875	0.6455587158203125	0		-0.15788450622558595	5.95232177734375	0		
-0.004300954818725586	-0.0031228890419006347	0		0.6348535766601563	-2.683983154296875	0		-0.98147412109375	0.3314075622558594	0		-0.15209672546386718	-3.40102294921875	0		1.759479248046875	-1.484905517578125	0		2.7978203125	-0.692349609375	0		4.1964189453125	-0.11227106475830079	0		6.010654296875	0.62453564453125	0		-0.15780665588378906	5.9525751953125	0		
-0.004488094806671143	-0.002876199960708618	0		0.5607921142578125	-2.669440185546875	0		-1.0405831298828125	0.33575509643554685	0		-0.13858070373535156	-3.40901953125	0		1.7633330078125	-1.4788099365234375	0		2.8156533203125	-0.68955078125	0		4.2212763671875	-0.10965996551513672	0		6.0156064453125	0.6363857421875	0		-0.2871742858886719	5.92914599609375	0		
0.02336105728149414	-0.0011350159645080566	0		0.6262863159179688	-2.681404296875	0		-0.9996854858398437	0.33930703735351564	0		-0.1518900146484375	-3.407535400390625	0		1.7343792724609375	-1.4621229248046874	0		2.8281943359375	-0.6476503295898437	0		4.21632421875	-0.09650996398925782	0		6.01204296875	0.6538073120117187	0		-0.1547262725830078	5.94902685546875	0		
-0.0017953799962997436	5.553759932518006E-4	0		0.6151787719726562	-2.670992431640625	0		-0.9738541259765625	0.33912124633789065	0		-0.14390463256835936	-3.390434814453125	0		1.7565870361328124	-1.4373538818359375	0		2.8221162109375	-0.6404193115234375	0		4.2352646484375	-0.08978679656982422	0		6.008224609375	0.6366480712890625	0		-0.28897891235351564	5.93269140625	0		
-0.0019730119705200196	7.920650243759156E-4	0		0.6040252685546875	-2.663582275390625	0		-0.9740185546875	0.3393957824707031	0		-0.1570316925048828	-3.379959716796875	0		1.7584072265625	-1.4342222900390624	0		2.801350341796875	-0.6159174194335938	0		4.223103515625	-0.0884986572265625	0		6.0081015625	0.6366484985351563	0		-0.15558612060546875	5.95053515625	0		
-0.005207499980926514	-0.0019221450090408324	0		0.6037494506835938	-2.663373046875	0		-0.9741871948242188	0.33966152954101564	0		-0.1573330841064453	-3.37972314453125	0		1.7533751220703124	-1.4229654541015626	0		2.822288818359375	-0.6081676025390625	0		4.23186376953125	-0.09158075714111329	0		6.01209912109375	0.6157289428710937	0		-0.155554443359375	5.950771484375	0		
-0.00539493989944458	-0.0016977280378341676	0		0.604513427734375	-2.661186279296875	0		-1.0044312744140624	0.3364610290527344	0		-0.21540097045898438	-3.36644482421875	0		1.75650439453125	-1.4028546142578124	0		2.81191748046875	-0.5618413696289063	0		4.2398896484375	-0.07963802337646485	0		6.01034814453125	0.5898997192382812	0		-0.15457086181640625	5.94998291015625	0		
-0.002537587881088257	0.0014641720056533813	0		0.609351318359375	-2.655078125	0		-0.9694791259765625	0.3440690002441406	0		-0.13588534545898437	-3.37767236328125	0		1.7517598876953124	-1.3756002197265624	0		2.8369189453125	-0.5501581420898437	0		4.24692578125	-0.06666786193847657	0		6.00978125	0.6280690307617187	0		-0.1546027374267578	5.95020361328125	0		
-0.0027447450160980225	0.0016726620197296143	0		0.599264404296875	-2.6447041015625	0		-0.9696781616210938	0.34430044555664063	0		-0.20779740905761718	-3.356155517578125	0		1.7480113525390626	-1.348365234375	0		2.852259521484375	-0.5192947998046875	0		4.2508251953125	-0.06063394165039063	0		6.00595263671875	0.61277001953125	0		-0.2870466613769531	5.93081787109375	0		
-0.006017165184020996	-0.0010728299617767333	0		0.5989927978515625	-2.644516845703125	0		-0.9029734497070312	0.3393011474609375	0		-0.14418490600585937	-3.362115478515625	0		1.773906982421875	-1.34067529296875	0		2.85332177734375	-0.5031736755371093	0		4.25775	-0.05264882278442383	0		6.00647265625	0.60768310546875	0		-0.1547672119140625	5.9506181640625	0		
-0.006246303081512451	-8.833289742469787E-4	0		0.59871923828125	-2.64433740234375	0		-1.0170869140625	0.3465807189941406	0		-0.2052965087890625	-3.351814453125	0		1.770147705078125	-1.3134473876953126	0		2.848795166015625	-0.4639476318359375	0		4.2647373046875	-0.04066039657592774	0		6.004015625	0.5871724243164063	0		-0.1690943603515625	5.94006689453125	0		
-0.006484477996826172	-7.047119736671447E-4	0		0.5765757446289063	-2.636767333984375	0		-0.9754183959960937	0.34100875854492185	0		-0.13964665222167968	-3.355835205078125	0		1.7722554931640624	-1.2933331298828126	0		2.857785888671875	-0.45097467041015626	0		4.27446044921875	-0.042722728729248045	0		6.00752880859375	0.6027460327148437	0		-0.1540706481933594	5.94997265625	0		
-0.0036743121147155763	0.002407059907913208	0		0.5834644165039062	-2.627736328125	0		-1.0386480712890624	0.34233563232421876	0		-0.19259217834472656	-3.336703369140625	0		1.76149072265625	-1.265990478515625	0		2.88549853515625	-0.39834170532226565	0		4.2868525390625	-0.007829538822174072	0		6.01105126953125	0.6200536499023438	0		-0.2856804504394531	5.9275341796875	0		
0.02105758476257324	0.001105638027191162	0		0.6003358764648438	-2.619899169921875	0		-0.9708287353515626	0.34525906372070314	0		-0.21342942810058593	-3.312167724609375	0		1.7867574462890625	-1.237314208984375	0		2.85249169921875	-0.38461578369140625	0		4.289642578125	-0.005772369861602783	0		6.0055595703125	0.577195556640625	0		-0.16863180541992187	5.9395546875	0		
-0.007217848777770996	-2.4209600687026978E-4	0		0.563258056640625	-2.609089599609375	0		-1.0129710083007812	0.35117440795898436	0		-0.21166586303710938	-3.310061767578125	0		1.7771253662109374	-1.203011962890625	0		2.854828369140625	-0.35254156494140626	0		4.2955439453125	0.0022202479839324952	0		6.00538671875	0.57734765625	0		-0.30220278930664063	5.92012841796875	0		
-0.007456593990325928	-1.1569800227880478E-4	0		0.5899760131835937	-2.61046044921875	0		-0.9713052978515625	0.3455426025390625	0		-0.20783999633789063	-3.305007568359375	0		1.78742333984375	-1.1730872802734376	0		2.862042236328125	-0.32756967163085937	0		4.29456103515625	0.016328741073608398	0		6.005216796875	0.5774837036132813	0		-0.16901544189453124	5.93982470703125	0		
-0.010760258674621583	-0.003949796915054322	0		0.5419178466796875	-2.59947900390625	0		-1.044503662109375	0.3479929504394531	0		-0.2339065704345703	-3.294422607421875	0		1.784677978515625	-1.145938720703125	0		2.88640771484375	-0.2949226989746094	0		4.31247314453125	0.02407972526550293	0		6.008748046875	0.5947423706054688	0		-0.2874056091308594	5.93009423828125	0		
0.017070436477661134	-0.0013684509992599487	0		0.5966572875976562	-2.601393310546875	0		-0.9896207275390625	0.35308587646484374	0		-0.2269800567626953	-3.285457275390625	0		1.77116748046875	-1.1066053466796875	0		2.902586181640625	-0.2731405029296875	0		4.32589111328125	0.05890707015991211	0		6.00146044921875	0.5951648559570313	0		-0.1551955871582031	5.95077294921875	0		
